<svg width="33" height="20" viewBox="0 0 33 20" fill="none" xmlns="http://www.w3.org/2000/svg">
<g clip-path="url(#clip0_2200_14754)">
<path d="M7.22094 0H15.1933C16.3061 0 16.9983 0.907081 16.7387 2.02364L13.027 17.9593C12.7651 19.072 11.6508 19.9799 10.5372 19.9799H2.56564C1.45433 19.9799 0.760608 19.072 1.02022 17.9593L4.73346 2.02364C4.99307 0.907081 6.10671 0 7.22094 0Z" fill="#E21836"/>
<path d="M14.5299 0H23.6979C24.8105 0 24.3088 0.907081 24.047 2.02364L20.3359 17.9593C20.0756 19.072 20.1568 19.9799 19.0418 19.9799H9.87381C8.75881 19.9799 8.06878 19.072 8.33072 17.9593L12.0416 2.02364C12.3051 0.907081 13.4164 0 14.5299 0Z" fill="#00447C"/>
<path d="M23.3342 0H31.3065C32.4209 0 33.1131 0.907081 32.8514 2.02364L29.1403 17.9593C28.8783 19.072 27.7633 19.9799 26.6491 19.9799H18.6805C17.5655 19.9799 16.8739 19.072 17.135 17.9593L20.8467 2.02364C21.1063 0.907081 22.2192 0 23.3342 0Z" fill="#007B84"/>
<path d="M9.30308 5.10626C8.48325 5.11462 8.24112 5.10626 8.16378 5.088C8.13405 5.22927 7.58083 7.78126 7.57927 7.78339C7.46016 8.2997 7.37349 8.66774 7.0791 8.90539C6.91198 9.04355 6.71689 9.1102 6.4907 9.1102C6.12713 9.1102 5.91532 8.92968 5.87976 8.58729L5.87296 8.46973C5.87296 8.46973 5.98372 7.77815 5.98372 7.77426C5.98372 7.77426 6.56435 5.44865 6.66831 5.14124C6.67375 5.12375 6.6753 5.11462 6.67666 5.10626C5.5465 5.11617 5.34616 5.10626 5.33236 5.088C5.32478 5.11306 5.2968 5.25725 5.2968 5.25725L4.70394 7.87842L4.65302 8.10072L4.5545 8.82786C4.5545 9.04355 4.59687 9.21961 4.6812 9.36845C4.9513 9.84045 5.72178 9.91119 6.15764 9.91119C6.71922 9.91119 7.24602 9.79187 7.60201 9.57404C8.21994 9.20892 8.38162 8.6382 8.5258 8.13103L8.59265 7.87084C8.59265 7.87084 9.19076 5.45545 9.29239 5.14124C9.29628 5.12375 9.29783 5.11462 9.30308 5.10626ZM11.3381 7.05478C11.1939 7.05478 10.9304 7.08975 10.6938 7.20576C10.6079 7.24987 10.5266 7.30078 10.4409 7.3515L10.5183 7.07226L10.4759 7.02524C9.974 7.12687 9.86168 7.14047 9.39804 7.20576L9.35918 7.23161C9.30535 7.67796 9.25755 8.01355 9.05798 8.8909C8.982 9.21424 8.90311 9.5407 8.82402 9.86327L8.8454 9.90427C9.32051 9.8792 9.46469 9.8792 9.87762 9.886L9.91104 9.84967C9.96351 9.58092 9.97031 9.51796 10.0865 8.97368C10.1411 8.71562 10.255 8.1486 10.3111 7.9467C10.4143 7.8989 10.5162 7.85187 10.6133 7.85187C10.8447 7.85187 10.8166 8.05377 10.8076 8.13422C10.7977 8.26927 10.7134 8.71037 10.6269 9.0891L10.5692 9.33355C10.529 9.51408 10.4849 9.68955 10.4446 9.86851L10.4621 9.90427C10.9304 9.8792 11.0733 9.8792 11.4732 9.886L11.5202 9.84967C11.5925 9.42994 11.6137 9.31762 11.7419 8.70649L11.8064 8.4257C11.9318 7.87616 11.9947 7.59751 11.8999 7.37054C11.7996 7.11618 11.5591 7.05478 11.3381 7.05478ZM13.6115 7.63013C13.3626 7.67794 13.2038 7.70981 13.046 7.7304C12.8896 7.75547 12.7371 7.77821 12.4965 7.81163L12.4775 7.82892L12.46 7.84272C12.4349 8.02188 12.4174 8.17675 12.3842 8.35883C12.356 8.54713 12.3127 8.76107 12.2421 9.06848C12.1875 9.3038 12.1594 9.38581 12.1283 9.46859C12.0979 9.55137 12.0645 9.63181 12.0031 9.86325L12.0175 9.88462L12.0295 9.90425C12.2544 9.89356 12.4015 9.88598 12.5527 9.88462C12.7036 9.87918 12.8601 9.88462 13.1022 9.88598L13.1234 9.86869L13.1461 9.84965C13.1811 9.64095 13.1863 9.58479 13.2077 9.48297C13.2289 9.37376 13.2654 9.22258 13.355 8.81878C13.3974 8.62913 13.4446 8.44006 13.4885 8.24651C13.5342 8.05375 13.582 7.8639 13.6274 7.67425L13.6206 7.65132L13.6115 7.63013ZM13.6168 6.85437C13.3906 6.72088 12.9936 6.76324 12.7264 6.94765C12.46 7.12836 12.4297 7.38487 12.6551 7.52011C12.8774 7.64992 13.276 7.61125 13.5408 7.42528C13.8067 7.24068 13.8399 6.98651 13.6168 6.85437ZM14.9847 9.94609C15.4423 9.94609 15.9114 9.81997 16.2645 9.44571C16.5362 9.14219 16.6607 8.69059 16.7038 8.50463C16.8443 7.88825 16.7349 7.60046 16.5976 7.42519C16.3889 7.158 16.02 7.0723 15.6374 7.0723C15.4074 7.0723 14.8594 7.09504 14.4313 7.4897C14.1239 7.77438 13.9818 8.16068 13.8961 8.53106C13.8097 8.90842 13.7102 9.58776 14.3349 9.84057C14.5277 9.92335 14.8055 9.94609 14.9847 9.94609ZM14.949 8.55923C15.0545 8.09248 15.179 7.70073 15.4969 7.70073C15.7461 7.70073 15.7641 7.99221 15.6534 8.46052C15.6335 8.56448 15.5426 8.95098 15.4196 9.11557C15.3337 9.23702 15.2321 9.31066 15.1198 9.31066C15.0863 9.31066 14.8875 9.31066 14.8844 9.01549C14.8829 8.86975 14.9126 8.72091 14.949 8.55923ZM17.8478 9.88606L17.8836 9.84972C17.9343 9.58098 17.9426 9.51783 18.055 8.97373C18.1111 8.71568 18.2273 8.14866 18.2819 7.94676C18.3853 7.89876 18.4854 7.85174 18.5856 7.85174C18.8155 7.85174 18.7875 8.05363 18.7784 8.13408C18.77 8.26933 18.6857 8.71024 18.5977 9.08897L18.5431 9.33342C18.5013 9.51413 18.4558 9.68941 18.4156 9.86857L18.4331 9.90433C18.903 9.87926 19.0403 9.87926 19.4426 9.88606L19.4912 9.84972C19.5617 9.4298 19.5807 9.31748 19.7129 8.70654L19.7758 8.42556C19.9018 7.87603 19.9655 7.59757 19.8722 7.3706C19.769 7.11624 19.5269 7.05483 19.3091 7.05483C19.1647 7.05483 18.8998 7.08962 18.6645 7.20582C18.5804 7.24993 18.4961 7.30065 18.4133 7.35156L18.4854 7.07232L18.4467 7.0251C17.945 7.12693 17.8303 7.14053 17.3673 7.20582L17.3317 7.23166C17.2755 7.67801 17.2299 8.01341 17.0303 8.89095C16.9543 9.2143 16.8754 9.54076 16.7965 9.86333L16.8177 9.90433C17.2936 9.87926 17.4357 9.87926 17.8478 9.88606ZM21.3 9.90423C21.3295 9.76005 21.505 8.90543 21.5065 8.90543C21.5065 8.90543 21.656 8.27836 21.6651 8.25563C21.6651 8.25563 21.7121 8.19034 21.7592 8.16449H21.8283C22.481 8.16449 23.2181 8.16449 23.7958 7.73952C24.1889 7.44804 24.4577 7.01762 24.5776 6.49452C24.6086 6.36627 24.6316 6.21372 24.6316 6.06118C24.6316 5.86084 24.5914 5.66264 24.4751 5.50776C24.1806 5.09561 23.5939 5.08804 22.9167 5.08493C22.9146 5.08493 22.5829 5.08804 22.5829 5.08804C21.716 5.09872 21.3684 5.09561 21.2256 5.07812C21.2135 5.14128 21.1908 5.25359 21.1908 5.25359C21.1908 5.25359 20.8802 6.69272 20.8802 6.69505C20.8802 6.69505 20.1372 9.7548 20.1022 9.89898C20.8591 9.88985 21.1694 9.88985 21.3 9.90423ZM21.8754 7.34777C21.8754 7.34777 22.2055 5.91156 22.204 5.917L22.2146 5.84335L22.2193 5.78719L22.3512 5.8008C22.3512 5.8008 23.0321 5.85929 23.0481 5.86084C23.3168 5.9648 23.4276 6.23277 23.3502 6.58254C23.2797 6.9022 23.0724 7.17094 22.806 7.30074C22.5866 7.41073 22.3178 7.41986 22.0409 7.41986H21.8618L21.8754 7.34777ZM23.9309 8.58583C23.8437 8.95776 23.7434 9.6371 24.365 9.87922C24.5633 9.96356 24.7409 9.98862 24.9214 9.97949C25.112 9.96919 25.2886 9.87359 25.4523 9.73601C25.4375 9.79255 25.4227 9.8491 25.408 9.90584L25.4361 9.94218C25.8833 9.92333 26.022 9.92333 26.5064 9.92702L26.5504 9.8936C26.6211 9.47776 26.6877 9.07396 26.8716 8.27842C26.9612 7.89736 27.0505 7.51999 27.1424 7.14049L27.1281 7.09871C26.6279 7.1914 26.4942 7.21122 26.0131 7.27943L25.9765 7.30916C25.9717 7.34783 25.9666 7.38494 25.962 7.42206C25.8871 7.30119 25.7787 7.19801 25.6114 7.13369C25.3975 7.04955 24.895 7.15798 24.463 7.55128C24.1595 7.83207 24.0137 8.21682 23.9309 8.58583ZM24.9814 8.60857C25.0885 8.15017 25.2115 7.76231 25.5302 7.76231C25.7317 7.76231 25.8378 7.94827 25.8162 8.2654C25.7991 8.34449 25.7807 8.42785 25.7587 8.5221C25.7268 8.65832 25.6922 8.79337 25.6586 8.92861C25.6244 9.02111 25.5846 9.10836 25.5409 9.16646C25.4589 9.28266 25.2638 9.35475 25.1515 9.35475C25.1196 9.35475 24.9229 9.35475 24.9161 9.06483C24.9146 8.92045 24.9443 8.7718 24.9814 8.60857ZM30.4672 7.095L30.4285 7.05089C29.9336 7.15116 29.844 7.16709 29.3893 7.2285L29.3558 7.26192C29.3543 7.26736 29.3529 7.27572 29.3506 7.28329L29.349 7.27572C29.0105 8.05668 29.0204 7.88821 28.7449 8.50304C28.7433 8.47505 28.7433 8.45756 28.7418 8.42783L28.6728 7.095L28.6295 7.05089C28.111 7.15116 28.0988 7.16709 27.62 7.2285L27.5827 7.26192C27.5774 7.27785 27.5774 7.29534 27.5743 7.31439L27.5774 7.32119C27.6373 7.62705 27.6229 7.55884 27.6829 8.04153C27.7109 8.2784 27.7482 8.51664 27.7762 8.7506C27.8234 9.14215 27.8499 9.33491 27.9076 9.93245C27.5842 10.466 27.5077 10.6679 27.1964 11.1363L27.1985 11.1409L26.9793 11.4876C26.9543 11.5241 26.9315 11.5492 26.8996 11.5599C26.8647 11.5772 26.8192 11.5803 26.756 11.5803H26.6346L26.4541 12.1807L27.0734 12.1914C27.4369 12.1898 27.6655 12.0198 27.7885 11.7913L28.1779 11.124H28.1717L28.2127 11.077C28.4746 10.5131 30.4672 7.095 30.4672 7.095ZM23.9309 14.9809H23.6682L24.6406 11.7648H24.9631L25.0655 11.4335L25.0755 11.8019C25.0634 12.0296 25.2426 12.2315 25.7132 12.1981H26.2575L26.4448 11.5788H26.24C26.1223 11.5788 26.0677 11.5491 26.0745 11.4853L26.0645 11.1105H25.0566V11.1124C24.7307 11.1192 23.7576 11.1437 23.5605 11.1962C23.3221 11.2576 23.0709 11.4383 23.0709 11.4383L23.1696 11.1066H22.2267L22.0303 11.7648L21.0449 15.0301H20.8537L20.6662 15.6449H22.5441L22.4811 15.8499H23.4065L23.4679 15.6449H23.7275L23.9309 14.9809ZM23.1604 12.4183C23.0095 12.46 22.7285 12.5867 22.7285 12.5867L22.9784 11.7648H23.7275L23.5468 12.3637C23.5468 12.3637 23.3153 12.3773 23.1604 12.4183ZM23.1748 13.5925C23.1748 13.5925 22.9395 13.6221 22.7846 13.6571C22.6321 13.7033 22.3461 13.849 22.3461 13.849L22.6041 12.9936H23.3571L23.1748 13.5925ZM22.7551 14.9885H22.0037L22.2215 14.2666H22.9706L22.7551 14.9885ZM24.5647 12.9936H25.6478L25.4922 13.4977H24.3947L24.2299 14.0488H25.1902L24.4631 15.0727C24.4122 15.1479 24.3665 15.1745 24.3158 15.1957C24.2649 15.2215 24.198 15.2518 24.1207 15.2518H23.8543L23.6712 15.8554H24.3681C24.7303 15.8554 24.9442 15.6906 25.1022 15.4743L25.6008 14.7919L25.7079 15.4848C25.7306 15.6146 25.8239 15.6906 25.8871 15.7201C25.9568 15.7551 26.0289 15.8152 26.1307 15.8241C26.2399 15.8288 26.3188 15.8325 26.3713 15.8325H26.7137L26.9193 15.157H26.7842C26.7067 15.157 26.5732 15.144 26.5505 15.1197C26.5277 15.0902 26.5277 15.0447 26.5155 14.9755L26.4069 14.281H25.9621L26.1572 14.0488H27.2525L27.421 13.4977H26.4069L26.5648 12.9936H27.5759L27.7634 12.372H24.7491L24.5647 12.9936ZM15.4165 15.1289L15.6693 14.2879H16.7084L16.8982 13.6624H15.8582L16.017 13.1447H17.0333L17.2216 12.539H14.6787L14.4943 13.1447H15.072L14.9179 13.6624H14.3386L14.1467 14.2986H14.7242L14.3872 15.4112C14.3417 15.5585 14.4086 15.6147 14.451 15.6831C14.4943 15.7497 14.5382 15.7938 14.6369 15.8189C14.7387 15.8416 14.8085 15.8552 14.9033 15.8552H16.0747L16.2834 15.1623L15.7642 15.2336C15.6639 15.2336 15.3862 15.2216 15.4165 15.1289ZM15.5357 11.1028L15.2724 11.5787C15.216 11.6827 15.1653 11.7472 15.1197 11.7769C15.0794 11.802 14.9998 11.8125 14.8843 11.8125H14.747L14.5633 12.4213H15.0196C15.239 12.4213 15.4075 12.3408 15.4879 12.3006C15.5744 12.2544 15.5971 12.2808 15.664 12.2163L15.818 12.0828H17.2428L17.4319 11.4489H16.389L16.571 11.1028H15.5357ZM17.6391 15.1411C17.6148 15.1061 17.6323 15.0445 17.6694 14.9163L18.0588 13.6274H19.4441C19.646 13.6244 19.7918 13.6221 19.8866 13.6153C19.9884 13.6046 20.0992 13.5683 20.2198 13.503C20.3444 13.4346 20.4081 13.3625 20.462 13.2797C20.522 13.1971 20.6184 13.0164 20.7012 12.7378L21.1907 11.1067L19.7531 11.115C19.7531 11.115 19.3104 11.1803 19.1155 11.2524C18.9189 11.3328 18.6379 11.5575 18.6379 11.5575L18.7677 11.1103H17.8797L16.6364 15.2336C16.5923 15.3937 16.5628 15.5099 16.556 15.5797C16.5536 15.6549 16.6508 15.7293 16.7137 15.7855C16.7882 15.8416 16.8982 15.8325 17.0037 15.8416C17.1146 15.85 17.2724 15.8552 17.4902 15.8552H18.1727L18.3822 15.1479L17.7712 15.2056C17.7059 15.2056 17.6587 15.1706 17.6391 15.1411ZM18.3101 12.7568H19.7651L19.6726 13.0467C19.6596 13.0535 19.6285 13.0324 19.4805 13.0498H18.2205L18.3101 12.7568ZM18.6015 11.7844H20.0689L19.9633 12.1336C19.9633 12.1336 19.2718 12.1268 19.161 12.1472C18.6736 12.2316 18.389 12.492 18.389 12.492L18.6015 11.7844ZM19.7052 14.0176C19.6932 14.0609 19.6741 14.0874 19.6475 14.1072C19.618 14.1262 19.5702 14.133 19.4988 14.133H19.2915L19.3037 13.78H18.4414L18.4064 15.5061C18.405 15.6307 18.4171 15.7027 18.5082 15.7605C18.5993 15.8326 18.8801 15.8417 19.2581 15.8417H19.7985L19.9936 15.1956L19.5231 15.2214L19.3667 15.2306C19.3453 15.2214 19.3249 15.2131 19.3022 15.1903C19.2824 15.1707 19.2489 15.1827 19.2544 15.0582L19.2581 14.6157L19.7515 14.5953C20.0179 14.5953 20.1317 14.5087 20.2289 14.4261C20.3216 14.347 20.3519 14.256 20.3869 14.133L20.4697 13.7413H19.7917L19.7052 14.0176Z" fill="#FEFEFE"/>
</g>
<defs>
<clipPath id="clip0_2200_14754">
<rect width="32" height="20" fill="white" transform="translate(0.965759)"/>
</clipPath>
</defs>
</svg>
