<?xml version="1.0" encoding="UTF-8"?>
<svg width="71px" height="47px" viewBox="0 0 71 47" version="1.1" xmlns="http://www.w3.org/2000/svg" xmlns:xlink="http://www.w3.org/1999/xlink">
    <!-- Generator: Sketch 61.2 (89653) - https://sketch.com -->
    <title>united-states-of-america</title>
    <desc>Created with Sketch.</desc>
    <g id="ðŸŒ-Nav---Store-Switcher" stroke="none" stroke-width="1" fill="none" fill-rule="evenodd">
        <g id="Desktop-1440---Nav----Store-switcher---US-store" transform="translate(-101.000000, -516.000000)" fill-rule="nonzero">
            <g id="Store-switcher">
                <g id="Store---Button-US---" transform="translate(65.000000, 480.000000)">
                    <g id="united-states-of-america" transform="translate(36.000000, 36.000000)">
                        <rect id="Rectangle" fill="#F0F0F0" opacity="0.4" x="0" y="0" width="71" height="47"></rect>
                        <g id="Group" transform="translate(0.000000, 6.000000)" fill="#D80027">
                            <rect id="Rectangle" x="0" y="0.135846667" width="70.5864078" height="5.83061"></rect>
                            <rect id="Rectangle" x="0" y="11.79857" width="70.5864078" height="5.83061"></rect>
                            <rect id="Rectangle" x="0" y="23.45979" width="70.5864078" height="5.83061"></rect>
                            <rect id="Rectangle" x="0" y="35.1225133" width="70.5864078" height="5.83061"></rect>
                        </g>
                        <rect id="Rectangle" fill="#2E52B2" x="0" y="0" width="36" height="25"></rect>
                        <g id="Group" transform="translate(3.000000, 4.000000)" fill="#F0F0F0">
                            <polygon id="Path" points="10.0830049 6.45563077 9.51986341 8.21187692 7.69836098 8.21187692 9.17225366 9.29672308 8.6091122 11.0528308 10.0830049 9.96798462 11.5559415 11.0528308 10.9929366 9.29672308 12.4668293 8.21187692 10.6451902 8.21187692"></polygon>
                            <polygon id="Path" points="10.6451902 14.5495385 10.0830049 12.7934308 9.51986341 14.5495385 7.69836098 14.5495385 9.17225366 15.6345231 8.6091122 17.3906308 10.0830049 16.3056462 11.5559415 17.3906308 10.9929366 15.6345231 12.4668293 14.5495385"></polygon>
                            <polygon id="Path" points="2.94710244 14.5495385 2.38478049 12.7934308 1.82163902 14.5495385 0.000136585366 14.5495385 1.47402927 15.6345231 0.910887805 17.3906308 2.38478049 16.3056462 3.85785366 17.3906308 3.29484878 15.6345231 4.76846829 14.5495385"></polygon>
                            <polygon id="Path" points="2.38478049 6.45563077 1.82163902 8.21187692 0.000136585366 8.21187692 1.47402927 9.29672308 0.910887805 11.0528308 2.38478049 9.96798462 3.85785366 11.0528308 3.29484878 9.29672308 4.76846829 8.21187692 2.94710244 8.21187692"></polygon>
                            <polygon id="Path" points="10.0830049 0.117692308 9.51986341 1.87407692 7.69836098 1.87407692 9.17225366 2.95906154 8.6091122 4.71516923 10.0830049 3.63018462 11.5559415 4.71516923 10.9929366 2.95906154 12.4668293 1.87407692 10.6451902 1.87407692"></polygon>
                            <polygon id="Path" points="2.38478049 0.117692308 1.82163902 1.87407692 0.000136585366 1.87407692 1.47402927 2.95906154 0.910887805 4.71516923 2.38478049 3.63018462 3.85785366 4.71516923 3.29484878 2.95906154 4.76846829 1.87407692 2.94710244 1.87407692"></polygon>
                            <polygon id="Path" points="17.7810927 6.45563077 17.2180878 8.21187692 15.3965854 8.21187692 16.8703415 9.29672308 16.3074732 11.0528308 17.7810927 9.96798462 19.2543024 11.0528308 18.691161 9.29672308 20.1650537 8.21187692 18.3435512 8.21187692"></polygon>
                            <polygon id="Path" points="18.3435512 14.5495385 17.7810927 12.7934308 17.2180878 14.5495385 15.3965854 14.5495385 16.8703415 15.6345231 16.3074732 17.3906308 17.7810927 16.3056462 19.2543024 17.3906308 18.691161 15.6345231 20.1650537 14.5495385"></polygon>
                            <polygon id="Path" points="26.0417756 14.5495385 25.4794537 12.7934308 24.9163122 14.5495385 23.0949463 14.5495385 24.5685659 15.6345231 24.005561 17.3906308 25.4794537 16.3056462 26.9525268 17.3906308 26.3893854 15.6345231 27.863278 14.5495385"></polygon>
                            <polygon id="Path" points="25.4794537 6.45563077 24.9163122 8.21187692 23.0949463 8.21187692 24.5685659 9.29672308 24.005561 11.0528308 25.4794537 9.96798462 26.9525268 11.0528308 26.3893854 9.29672308 27.863278 8.21187692 26.0417756 8.21187692"></polygon>
                            <polygon id="Path" points="17.7810927 0.117692308 17.2180878 1.87407692 15.3965854 1.87407692 16.8703415 2.95906154 16.3074732 4.71516923 17.7810927 3.63018462 19.2543024 4.71516923 18.691161 2.95906154 20.1650537 1.87407692 18.3435512 1.87407692"></polygon>
                            <polygon id="Path" points="25.4794537 0.117692308 24.9163122 1.87407692 23.0949463 1.87407692 24.5685659 2.95906154 24.005561 4.71516923 25.4794537 3.63018462 26.9525268 4.71516923 26.3893854 2.95906154 27.863278 1.87407692 26.0417756 1.87407692"></polygon>
                        </g>
                    </g>
                </g>
            </g>
        </g>
    </g>
</svg>